<svg id="Capa_1" enable-background="new 0 0 507.259 507.259" height="512" viewBox="0 0 507.259 507.259" width="512" xmlns="http://www.w3.org/2000/svg" xmlns:xlink="http://www.w3.org/1999/xlink"><linearGradient id="SVGID_1_" gradientUnits="userSpaceOnUse" x1="86.347" x2="440.444" y1="457.943" y2="35.946"><stop offset="0" stop-color="#d2deff" stop-opacity="0"/><stop offset="1" stop-color="#b7c5ff"/></linearGradient><g><g><path d="m.156 321.01c-7.914 179.092 288.253 168.164 420.803 136.265 82.467-19.846 87.596-59.472 86.106-144.001-.96-54.486 3.443-198.725-32.004-244.123-54.448-69.733-103.228-25.998-170.656-3.235-86.488 29.197-120.189-22.932-202.476-21.38-120.641 2.278-97.815 186.886-101.773 276.474z" fill="url(#SVGID_1_)"/></g><g><path d="m405.271 262.013-74.322-30.816 74.322-30.816c8.226-3.411 8.226-15.064 0-18.475l-150.668-62.471c-2.452-1.017-5.208-1.017-7.66 0l-150.668 62.472c-8.227 3.411-8.227 15.064 0 18.475l74.322 30.816-74.322 30.816c-8.227 3.411-8.227 15.064 0 18.475l74.322 30.816-74.322 30.815c-8.227 3.411-8.227 15.064 0 18.475l150.668 62.471c2.452 1.017 5.208 1.017 7.66 0l150.668-62.471c8.226-3.411 8.226-15.064 0-18.475l-74.322-30.816 74.322-30.816c8.226-3.411 8.226-15.064 0-18.475z" fill="#6583fe" opacity=".2"/><g fill="#6583fe" opacity=".2"><path d="m60.608 304.759-4.663 4.664v-200.173c0-2.761-2.239-5-5-5s-5 2.239-5 5v200.173l-4.664-4.664c-1.953-1.952-5.118-1.952-7.071 0-1.953 1.953-1.953 5.119 0 7.071l13.199 13.199c.977.976 2.256 1.464 3.536 1.464s2.559-.488 3.536-1.464l13.199-13.199c1.953-1.953 1.953-5.119 0-7.071-1.954-1.952-5.119-1.952-7.072 0z"/><path d="m467.337 230.671-13.199-13.199c-1.953-1.952-5.118-1.952-7.071 0l-13.199 13.199c-1.953 1.953-1.953 5.119 0 7.071s5.118 1.952 7.071 0l4.664-4.664v200.173c0 2.761 2.239 5 5 5s5-2.239 5-5v-200.172l4.664 4.664c.977.976 2.256 1.464 3.536 1.464s2.559-.488 3.536-1.464c1.95-1.953 1.95-5.119-.002-7.072z"/></g><g><g><g><path d="m405.269 340.591-150.67 62.47c-2.45 1.02-5.2 1.02-7.66 0l-150.66-62.47c-8.23-3.41-8.23-15.06 0-18.47l50.82-21.07 99.84-41.4c2.46-1.02 5.21-1.02 7.66 0l99.85 41.4 50.82 21.07c8.23 3.41 8.23 15.06 0 18.47z" fill="#fff"/><path d="m349.219 331.361-98.45 40.82-98.45-40.82 33.94-14.07 64.51-26.75 64.51 26.75z" fill="#6583fe"/></g><path d="m405.269 260.491-150.67 62.47c-2.45 1.02-5.2 1.02-7.66 0l-150.66-62.47c-8.23-3.41-8.23-15.07 0-18.48l50.82-21.07 99.84-41.4c2.46-1.02 5.21-1.02 7.66 0l99.85 41.4 50.82 21.07c8.23 3.41 8.23 15.07 0 18.48z" fill="#6583fe"/><path d="m349.219 251.251-98.45 40.82-98.45-40.82 33.94-14.07 64.51-26.75 64.51 26.75z" fill="#fff"/><g><path d="m246.943 99.436-150.668 62.471c-8.227 3.411-8.227 15.064 0 18.475l150.668 62.471c2.452 1.017 5.208 1.017 7.66 0l150.668-62.471c8.226-3.411 8.226-15.064 0-18.475l-150.668-62.471c-2.452-1.017-5.208-1.017-7.66 0z" fill="#fff"/><path d="m152.323 171.144 98.45-40.819 98.45 40.819-98.45 40.82z" fill="#6583fe"/></g><g fill="#2626bc"><path d="m416.442 251.251c0-6.183-3.548-11.493-9.258-13.859l-63.184-26.193 63.186-26.199c5.708-2.367 9.255-7.676 9.255-13.856s-3.546-11.489-9.255-13.856l-150.668-62.471c-3.705-1.536-7.785-1.536-11.49 0l-150.668 62.471c-5.709 2.367-9.255 7.676-9.255 13.856s3.546 11.489 9.255 13.856l63.184 26.2-63.179 26.191c-5.711 2.366-9.258 7.677-9.258 13.859 0 6.183 3.547 11.493 9.257 13.859l63.176 26.195-63.18 26.196c-5.709 2.367-9.255 7.677-9.255 13.856 0 6.18 3.546 11.489 9.255 13.855l150.668 62.472c1.853.768 3.798 1.151 5.745 1.151s3.893-.384 5.746-1.152l39.838-16.518c2.551-1.058 3.761-3.983 2.704-6.534-1.058-2.551-3.984-3.762-6.534-2.704l-39.838 16.518c-1.235.513-2.597.512-3.831 0l-150.668-62.468c-2.862-1.187-3.085-3.835-3.085-4.618 0-.784.222-3.432 3.085-4.619l72.404-30.021 74.43 30.862c1.856.77 3.804 1.154 5.75 1.154 1.947 0 3.892-.385 5.739-1.154l74.436-30.862 72.406 30.021c2.863 1.187 3.085 3.835 3.085 4.619 0 .783-.223 3.431-3.085 4.618l-79.344 32.898c-2.551 1.058-3.761 3.983-2.704 6.534 1.058 2.551 3.983 3.76 6.534 2.704l79.344-32.898c5.708-2.367 9.255-7.676 9.255-13.855 0-6.18-3.546-11.489-9.255-13.856l-63.181-26.197 63.178-26.194c5.712-2.368 9.26-7.679 9.26-13.861zm-13.088 4.621-150.677 62.473c-1.227.511-2.585.51-3.823-.003l-150.661-62.47c-2.864-1.187-3.086-3.837-3.086-4.621s.223-3.435 3.087-4.622l74.32-30.81c1.868-.774 3.085-2.597 3.085-4.619 0-2.021-1.217-3.844-3.085-4.619l-74.324-30.818c-2.862-1.187-3.085-3.835-3.085-4.619 0-.783.223-3.432 3.085-4.619l150.668-62.471c.617-.256 1.266-.384 1.915-.384s1.298.128 1.915.384l150.668 62.471c2.862 1.187 3.085 3.835 3.085 4.619s-.223 3.432-3.085 4.619l-150.668 62.471c-1.234.512-2.596.512-3.83 0l-48.252-20.007c-2.55-1.058-5.476.152-6.534 2.704-1.058 2.551.153 5.476 2.704 6.534l48.252 20.007c3.705 1.536 7.785 1.536 11.49 0l74.427-30.859 72.41 30.018c2.864 1.187 3.087 3.837 3.087 4.621 0 .783-.223 3.433-3.088 4.62z"/><path d="m60.608 284.759-4.664 4.664v-200.173c0-2.761-2.239-5-5-5s-5 2.239-5 5v200.173l-4.664-4.664c-1.953-1.952-5.118-1.952-7.071 0-1.953 1.953-1.953 5.119 0 7.071l13.2 13.199c.977.976 2.256 1.464 3.536 1.464s2.559-.488 3.536-1.464l13.199-13.199c1.953-1.953 1.953-5.119 0-7.071-1.954-1.952-5.119-1.952-7.072 0z"/><path d="m467.337 210.671-13.199-13.199c-1.953-1.952-5.118-1.952-7.071 0l-13.199 13.199c-1.953 1.953-1.953 5.119 0 7.071s5.118 1.952 7.071 0l4.664-4.664v200.173c0 2.761 2.239 5 5 5s5-2.239 5-5v-200.172l4.663 4.664c.977.976 2.256 1.464 3.536 1.464s2.559-.488 3.536-1.464c1.951-1.953 1.951-5.119-.001-7.072z"/></g></g><g fill="#6583fe"><path d="m429.416 134.673c-2.761 0-5-2.239-5-5 0-3.309-2.691-6-6-6-2.761 0-5-2.239-5-5s2.239-5 5-5c3.309 0 6-2.691 6-6 0-2.761 2.239-5 5-5s5 2.239 5 5c0 3.309 2.691 6 6 6 2.761 0 5 2.239 5 5s-2.239 5-5 5c-3.309 0-6 2.691-6 6 0 2.761-2.238 5-5 5z"/><path d="m150.51 94.25c-2.761 0-5-2.239-5-5 0-3.309-2.691-6-6-6-2.761 0-5-2.239-5-5s2.239-5 5-5c3.309 0 6-2.691 6-6 0-2.761 2.239-5 5-5s5 2.239 5 5c0 3.309 2.691 6 6 6 2.761 0 5 2.239 5 5s-2.239 5-5 5c-3.309 0-6 2.691-6 6 0 2.761-2.239 5-5 5z"/><path d="m111.192 410.177c-2.761 0-5-2.239-5-5 0-3.309-2.691-6-6-6-2.761 0-5-2.239-5-5s2.239-5 5-5c3.309 0 6-2.691 6-6 0-2.761 2.239-5 5-5s5 2.239 5 5c0 3.309 2.691 6 6 6 2.761 0 5 2.239 5 5s-2.239 5-5 5c-3.309 0-6 2.691-6 6 0 2.761-2.239 5-5 5z"/><path d="m386.009 104.25c-1.28 0-2.559-.488-3.536-1.464-1.953-1.953-1.953-5.119 0-7.071l10-10c1.953-1.952 5.118-1.952 7.071 0 1.953 1.953 1.953 5.119 0 7.071l-10 10c-.976.975-2.256 1.464-3.535 1.464z"/><path d="m308.363 439.899c-1.28 0-2.559-.488-3.536-1.464-1.953-1.953-1.953-5.119 0-7.071l10-10c1.953-1.952 5.118-1.952 7.071 0 1.953 1.953 1.953 5.119 0 7.071l-10 10c-.976.976-2.256 1.464-3.535 1.464z"/></g></g></g></g></svg>