<svg id="Capa_1" enable-background="new 0 0 512 512" height="512" viewBox="0 0 512 512" width="512" xmlns="http://www.w3.org/2000/svg" xmlns:xlink="http://www.w3.org/1999/xlink"><linearGradient id="SVGID_1_" gradientUnits="userSpaceOnUse" x1="38.237" x2="459.689" y1="256" y2="256"><stop offset="0" stop-color="#d2deff" stop-opacity="0"/><stop offset="1" stop-color="#b7c5ff"/></linearGradient><g><g><g><path d="m90.109 38.232c-135.327 119.538 38.831 235.409 22.243 366.028-7.375 58.072 16.054 113.588 92.705 107.244 93.413-7.732 59.504-97.209 79.066-156.778 33.66-102.501 240.73-78.56 154.895-236.448-54.778-100.758-255.766-162.321-348.909-80.046z" fill="url(#SVGID_1_)"/></g><g><path d="m470.508 143.93c-7.42-7.42-19.45-7.42-26.87 0l-50.24 50.24h-67.434v-60.67c0-5.52-4.48-10-10-10h-219c-5.52 0-10 4.48-10 10v278c0 22.09 17.91 40 40 40h244c22.09 0 40-17.91 40-40v-181.156l59.545-59.544c7.419-7.42 7.419-19.451-.001-26.87z" fill="#2626bc" opacity=".1"/><g><g><g><path d="m410.963 177.17v207.33c0 22.09-17.91 40-40 40h-185.59v-257.33h215.59c5.03 0 9.2 3.72 9.89 8.56.08.47.11.95.11 1.44z" fill="#fff"/><path d="m365.963 424.5h-239c-22.09 0-40-17.91-40-40v-278c0-5.52 4.48-10 10-10h219c5.52 0 10 4.48 10 10v278c0 22.09 17.91 40 40 40z" fill="#fff"/><path d="m325.963 181.666v-75.166c0-5.52-4.48-10-10-10h-219c-5.52 0-10 4.48-10 10v75.166z" fill="#6583fe"/></g><g><g><path d="m287.76 327.951h-164.417c-2.762 0-5-2.239-5-5s2.238-5 5-5h164.417c2.762 0 5 2.239 5 5 0 2.762-2.238 5-5 5z" fill="#2626bc"/></g><g><path d="m220.403 374.723h-97.059c-2.762 0-5-2.239-5-5s2.238-5 5-5h97.059c2.762 0 5 2.239 5 5s-2.239 5-5 5z" fill="#2626bc"/></g><g><g><path d="m287.76 267.951h-164.417c-2.762 0-5-2.239-5-5s2.238-5 5-5h164.417c2.762 0 5 2.239 5 5 0 2.762-2.238 5-5 5z" fill="#2626bc"/></g><g><path d="m287.76 287.951h-164.417c-2.762 0-5-2.239-5-5s2.238-5 5-5h164.417c2.762 0 5 2.239 5 5 0 2.762-2.238 5-5 5z" fill="#2626bc"/></g><g><path d="m287.76 307.951h-164.417c-2.762 0-5-2.239-5-5s2.238-5 5-5h164.417c2.762 0 5 2.239 5 5 0 2.762-2.238 5-5 5z" fill="#2626bc"/></g></g><g><g><path d="m166.45 207.951h-43.107c-2.762 0-5-2.239-5-5s2.238-5 5-5h43.107c2.762 0 5 2.239 5 5 0 2.762-2.238 5-5 5z" fill="#2626bc"/></g><g><path d="m166.45 164.951h-43.107c-2.762 0-5-2.239-5-5s2.238-5 5-5h43.107c2.762 0 5 2.239 5 5 0 2.762-2.238 5-5 5z" fill="#2626bc"/></g><g><path d="m166.45 146.806h-43.107c-2.762 0-5-2.239-5-5s2.238-5 5-5h43.107c2.762 0 5 2.239 5 5s-2.238 5-5 5z" fill="#2626bc"/></g><g><path d="m282.679 146.806h-10.107c-2.762 0-5-2.239-5-5s2.238-5 5-5h10.107c2.762 0 5 2.239 5 5s-2.238 5-5 5z" fill="#2626bc"/></g><g><path d="m287.76 227.951h-164.417c-2.762 0-5-2.239-5-5s2.238-5 5-5h164.417c2.762 0 5 2.239 5 5 0 2.762-2.238 5-5 5z" fill="#2626bc"/></g><g><path d="m287.76 247.951h-164.417c-2.762 0-5-2.239-5-5s2.238-5 5-5h164.417c2.762 0 5 2.239 5 5 0 2.762-2.238 5-5 5z" fill="#2626bc"/></g></g></g></g><g fill="#6583fe"><path d="m46.939 308.865c-1.28 0-2.559-.488-3.536-1.465l-11-11c-1.953-1.952-1.953-5.118 0-7.07l11-11c1.953-1.953 5.118-1.953 7.071 0l11 11c1.953 1.952 1.953 5.118 0 7.07l-11 11c-.976.977-2.255 1.465-3.535 1.465zm-3.929-16 3.929 3.929 3.929-3.929-3.929-3.929z"/><path d="m57.939 440.5c-2.761 0-5-2.238-5-5 0-3.309-2.691-6-6-6-2.761 0-5-2.238-5-5s2.239-5 5-5c3.309 0 6-2.691 6-6 0-2.762 2.239-5 5-5s5 2.238 5 5c0 3.309 2.691 6 6 6 2.761 0 5 2.238 5 5s-2.239 5-5 5c-3.309 0-6 2.691-6 6 0 2.762-2.239 5-5 5z"/><path d="m380.963 127.364c-2.761 0-5-2.238-5-5 0-3.309-2.691-6-6-6-2.761 0-5-2.238-5-5s2.239-5 5-5c3.309 0 6-2.691 6-6 0-2.762 2.239-5 5-5s5 2.238 5 5c0 3.309 2.691 6 6 6 2.761 0 5 2.238 5 5s-2.239 5-5 5c-3.309 0-6 2.691-6 6 0 2.762-2.239 5-5 5z"/><path d="m345.1 83.903c-2.761 0-5-2.238-5-5 0-3.309-2.692-6-6.001-6-2.761 0-5-2.238-5-5s2.239-5 5-5c3.309 0 6.001-2.691 6.001-6 0-2.762 2.239-5 5-5s5 2.238 5 5c0 3.309 2.691 6 6 6 2.761 0 5 2.238 5 5s-2.239 5-5 5c-3.308 0-6 2.691-6 6 0 2.762-2.238 5-5 5z"/></g></g><g><g><path d="m289.122 173.929c0-9.419-7.663-17.082-17.082-17.082s-17.082 7.663-17.082 17.082c0 4.646 1.869 8.858 4.889 11.941-3.019 3.083-4.889 7.296-4.889 11.941 0 2.839 2.302 5.141 5.141 5.141s5.141-2.302 5.141-5.141c0-3.749 3.05-6.8 6.8-6.8 3.749 0 6.8 3.05 6.8 6.8 0 2.839 2.302 5.141 5.141 5.141s5.141-2.302 5.141-5.141c0-4.645-1.869-8.858-4.889-11.941 3.02-3.083 4.889-7.296 4.889-11.941zm-17.082-6.8c3.749 0 6.8 3.05 6.8 6.8 0 3.749-3.05 6.8-6.8 6.8-3.749 0-6.8-3.051-6.8-6.8 0-3.75 3.051-6.8 6.8-6.8z" fill="#2626bc"/></g></g><g><path d="m247.998 363.014-28.248 11.161c-4.07 1.608-8.096-2.418-6.488-6.488l11.161-28.249c1.42-3.593 3.562-6.857 6.294-9.589l212.921-212.919c7.42-7.42 19.45-7.42 26.87 0 7.42 7.42 7.42 19.45 0 26.87l-212.921 212.92c-2.732 2.732-5.996 4.875-9.589 6.294z" fill="#6583fe"/><path d="m435.353 128.334h9.5v38h-9.5z" fill="#fff" transform="matrix(.707 -.707 .707 .707 24.722 354.353)"/><path d="m396.587 151.975h39.75v38h-39.75z" fill="#fff" transform="matrix(.707 -.707 .707 .707 1.081 344.561)"/><g><path d="m378.348 202.018 30.481-30.481c1.953-1.953 5.119-1.952 7.071 0 1.953 1.952 1.953 5.118 0 7.071l-30.481 30.481c-1.953 1.953-5.119 1.952-7.071 0s-1.952-5.118 0-7.071z" fill="#2626bc"/></g></g><path d="m448.096 283.951c-1.28 0-2.559-.488-3.536-1.465l-11-11c-1.953-1.952-1.953-5.118 0-7.07l11-11c1.953-1.953 5.118-1.953 7.071 0l11 11c1.953 1.952 1.953 5.118 0 7.07l-11 11c-.976.977-2.255 1.465-3.535 1.465zm-3.929-16 3.929 3.929 3.929-3.929-3.929-3.929z" fill="#6583fe"/></g></g><path d="m440.102 113.394-48.773 48.772h-31.706c-2.761 0-5 2.238-5 5s2.239 5 5 5h21.706l-50.367 50.366v-116.032c0-8.272-6.729-15-15-15h-219c-8.271 0-15 6.728-15 15v278c0 24.814 20.187 45 45 45h58.411 185.589c24.813 0 45-20.186 45-45v-178.667c0-.13-.029-.252-.038-.38l58.118-58.118c9.357-9.357 9.357-24.583 0-33.94-9.356-9.358-24.582-9.359-33.94-.001zm-34.139 271.106c0 19.299-15.701 35-35 35h-5c-19.299 0-35-15.701-35-35v-61.549c0-2.762-2.239-5-5-5s-5 2.238-5 5v61.549c0 14.121 6.538 26.743 16.746 35h-152.335-58.411c-19.299 0-35-15.701-35-35v-278c0-2.757 2.243-5 5-5h219c2.757 0 5 2.243 5 5v126.033l-93.781 93.781c-3.235 3.234-5.728 7.032-7.409 11.288l-11.161 28.249c-1.488 3.765-.634 7.882 2.229 10.744 1.932 1.933 4.436 2.95 7.017 2.95 1.244 0 2.505-.236 3.73-.72l28.249-11.161c4.254-1.682 8.052-4.174 11.288-7.409l144.84-144.841v169.086zm61.009-244.235-212.92 212.92c-2.262 2.262-4.917 4.005-7.892 5.18l-28.249 11.161 11.162-28.249c1.175-2.975 2.917-5.629 5.179-7.891l212.921-212.921c2.729-2.729 6.314-4.094 9.9-4.094 3.585 0 7.17 1.365 9.899 4.094 5.458 5.459 5.458 14.341 0 19.8z" fill="#2626bc"/></g></svg>