<svg id="Capa_1" enable-background="new 0 0 512 512" height="512" viewBox="0 0 512 512" width="512" xmlns="http://www.w3.org/2000/svg" xmlns:xlink="http://www.w3.org/1999/xlink"><linearGradient id="SVGID_1_" gradientUnits="userSpaceOnUse" x1="487.504" x2="27.504" y1="642.247" y2="-37.753"><stop offset=".0023" stop-color="#ffc599"/><stop offset=".992" stop-color="#ffe8dc" stop-opacity="0"/></linearGradient><path d="m465.257 163.054c-14.861-17.312-24.645-38.356-29.218-60.708-3.878-18.954-12.095-35.401-24.961-48.267-58.773-58.773-192.264-20.572-298.161 85.325s-144.098 239.388-85.325 298.161c27.937 27.937 72.757 33.955 123.469 21.212 29.453-7.401 60.532-4.287 88.29 8.03 23.202 10.295 48.799 16.173 75.724 16.566 105.676 1.543 193.748-82.552 196.839-188.195 1.479-50.506-16.354-96.822-46.657-132.124z" fill="url(#SVGID_1_)"/><path d="m419.452 453.441h-331.904c-10.52 0-19.048-8.528-19.048-19.048v-349.905c0-10.52 8.528-19.048 19.048-19.048h331.905c10.52 0 19.048 8.528 19.048 19.048v349.905c-.001 10.52-8.529 19.048-19.049 19.048z" fill="#00c" opacity=".1"/><path d="m419.452 432.441h-331.904c-10.52 0-19.048-8.528-19.048-19.048v-349.905c0-10.52 8.528-19.048 19.048-19.048h331.905c10.52 0 19.048 8.528 19.048 19.048v349.905c-.001 10.52-8.529 19.048-19.049 19.048z" fill="#fff"/><path d="m220.096 242.679h-102.192c-2.761 0-5-2.239-5-5v-102.191c0-2.761 2.239-5 5-5h102.191c2.761 0 5 2.239 5 5v102.191c.001 2.761-2.238 5-4.999 5z" fill="#ebebff"/><circle cx="342.077" cy="283.118" fill="#ebebff" r="63.029"/><path d="m438.5 100.631v-37.143c0-10.52-8.528-19.048-19.048-19.048h-331.904c-10.52 0-19.048 8.528-19.048 19.048v37.143z" fill="#b3b3ff"/><path d="m419.452 39.441h-331.904c-13.26 0-24.048 10.788-24.048 24.048v315.904c0 2.762 2.238 5 5 5s5-2.238 5-5v-315.905c0-7.746 6.302-14.048 14.048-14.048h331.904c7.746 0 14.048 6.302 14.048 14.048v32.143h-324c-2.762 0-5 2.238-5 5s2.238 5 5 5h324v307.762c0 7.746-6.302 14.048-14.048 14.048h-331.904c-7.746 0-14.048-6.302-14.048-14.048 0-2.762-2.238-5-5-5s-5 2.238-5 5c0 13.26 10.788 24.048 24.048 24.048h331.904c13.26 0 24.048-10.788 24.048-24.048v-349.905c0-13.259-10.788-24.047-24.048-24.047z" fill="#00c"/><path d="m397 77.536h-16.52c-2.762 0-5-2.239-5-5s2.238-5 5-5h16.52c2.762 0 5 2.239 5 5s-2.238 5-5 5z" fill="#ff4d4d"/><path d="m358.5 77.536h-16.52c-2.762 0-5-2.239-5-5s2.238-5 5-5h16.52c2.762 0 5 2.239 5 5s-2.238 5-5 5z" fill="#ff9d33"/><path d="m303 77.536h-136.52c-2.762 0-5-2.239-5-5s2.238-5 5-5h136.52c2.762 0 5 2.239 5 5s-2.238 5-5 5z" fill="#ebebff"/><path d="m363.5 225.78c-2.87 71.62-48.07 131.74-110 153.46-61.93-21.72-107.13-81.84-110-153.46 0 0 .65-45.57 2.07-61.11.23-2.56 2.38-4.51 4.95-4.51 16.83-.03 78.33-1.28 99.96-17.84.9-.68 1.96-1.02 3.02-1.02s2.12.34 3.02 1.02c21.63 16.56 83.13 17.81 99.96 17.84 2.57 0 4.72 1.95 4.95 4.51 1.42 15.541 2.07 61.11 2.07 61.11z" fill="#ff9d33"/><path d="m363.5 225.78c-2.87 71.62-48.07 131.74-110 153.46v-237.94c1.06 0 2.12.34 3.02 1.02 21.63 16.56 83.13 17.81 99.96 17.84 2.57 0 4.72 1.95 4.95 4.51 1.42 15.541 2.07 61.11 2.07 61.11z" fill="#ff7300"/><path d="m253.5 346.974c-20.779-9.319-38.911-24.163-52.88-43.387-16.454-22.644-25.82-49.679-27.111-78.229.174-11.835.476-24.896.836-35.836 9.227-.467 19.874-1.265 30.587-2.619 20.176-2.553 36.154-6.453 48.568-11.939 12.415 5.487 28.393 9.388 48.571 11.939 10.711 1.355 21.358 2.152 30.584 2.619.36 10.939.662 24.001.836 35.836-1.291 28.551-10.657 55.586-27.111 78.229-13.969 19.224-32.101 34.067-52.88 43.387z" fill="#ff2c2c"/><path d="m253.5 174.963c12.415 5.487 28.393 9.388 48.571 11.939 10.711 1.355 21.358 2.152 30.584 2.619.36 10.939.662 24.001.836 35.836-1.291 28.551-10.657 55.586-27.111 78.229-13.969 19.224-32.101 34.067-52.88 43.387z" fill="#ff9494"/><circle cx="253.5" cy="243.814" fill="#fff" r="37.9"/><path d="m253.5 253.941c-8.411 0-15.254-6.843-15.254-15.254s6.843-15.254 15.254-15.254 15.254 6.843 15.254 15.254-6.843 15.254-15.254 15.254zm0-20.508c-2.897 0-5.254 2.356-5.254 5.254s2.356 5.254 5.254 5.254 5.254-2.356 5.254-5.254-2.357-5.254-5.254-5.254z" fill="#ff2c2c"/><path d="m263.754 264.194c-2.762 0-5-2.238-5-5 0-2.897-2.356-5.254-5.254-5.254s-5.254 2.356-5.254 5.254c0 2.762-2.238 5-5 5s-5-2.238-5-5c0-8.411 6.843-15.254 15.254-15.254s15.254 6.843 15.254 15.254c0 2.762-2.238 5-5 5z" fill="#ff2c2c"/><g fill="#d9d9ff"><path d="m124.256 395.133h-12.5c-2.762 0-5-2.239-5-5s2.238-5 5-5h12.5c2.762 0 5 2.239 5 5s-2.238 5-5 5z"/><path d="m217.256 395.133h-72.5c-2.762 0-5-2.239-5-5s2.238-5 5-5h72.5c2.762 0 5 2.239 5 5s-2.238 5-5 5z"/><path d="m154.256 377.906h-42.5c-2.762 0-5-2.239-5-5s2.238-5 5-5h42.5c2.762 0 5 2.239 5 5s-2.238 5-5 5z"/></g><path d="m124.256 353.133h-12.5c-2.762 0-5-2.239-5-5s2.238-5 5-5h12.5c2.762 0 5 2.239 5 5s-2.238 5-5 5z" fill="#ff8b00"/><path d="m391.057 383.52c-9.16 0-16.613-7.453-16.613-16.613s7.453-16.613 16.613-16.613 16.613 7.453 16.613 16.613-7.453 16.613-16.613 16.613zm0-23.227c-3.646 0-6.613 2.967-6.613 6.613s2.967 6.613 6.613 6.613 6.613-2.967 6.613-6.613-2.967-6.613-6.613-6.613z" fill="#ffab66"/><path d="m402.67 395.133c-2.762 0-5-2.238-5-5 0-3.646-2.967-6.613-6.613-6.613s-6.613 2.967-6.613 6.613c0 2.762-2.238 5-5 5s-5-2.238-5-5c0-9.16 7.453-16.613 16.613-16.613s16.613 7.453 16.613 16.613c0 2.762-2.238 5-5 5z" fill="#ffab66"/><path d="m358.557 395.133h-12.5c-2.762 0-5-2.239-5-5s2.238-5 5-5h12.5c2.762 0 5 2.239 5 5s-2.239 5-5 5z" fill="#d9d9ff"/><path d="m358.557 377.906h-12.5c-2.762 0-5-2.239-5-5s2.238-5 5-5h12.5c2.762 0 5 2.239 5 5s-2.239 5-5 5z" fill="#d9d9ff"/><path d="m482.51 118.685c-1.279 0-2.56-.488-3.535-1.465l-6.465-6.464-6.465 6.464c-1.951 1.953-5.119 1.953-7.07 0-1.953-1.952-1.953-5.118 0-7.07l10-10c1.951-1.953 5.119-1.953 7.07 0l10 10c1.953 1.952 1.953 5.118 0 7.07-.976.976-2.256 1.465-3.535 1.465z" fill="#6c6cff"/><path d="m223.587 485.513c-1.279 0-2.56-.488-3.535-1.465l-6.465-6.464-6.465 6.464c-1.951 1.953-5.119 1.953-7.07 0-1.953-1.952-1.953-5.118 0-7.07l10-10c1.951-1.953 5.119-1.953 7.07 0l10 10c1.953 1.952 1.953 5.118 0 7.07-.976.977-2.256 1.465-3.535 1.465z" fill="#6c6cff"/><path d="m29.49 178.082c-1.279 0-2.56-.488-3.535-1.465-1.953-1.952-1.953-5.118 0-7.07l10-10c1.951-1.953 5.119-1.953 7.07 0 1.953 1.952 1.953 5.118 0 7.07l-10 10c-.975.977-2.255 1.465-3.535 1.465z" fill="#ff6c6c"/><path d="m460.843 224.685c-1.279 0-2.56-.488-3.535-1.465-1.953-1.952-1.953-5.118 0-7.07l10-10c1.951-1.953 5.119-1.953 7.07 0 1.953 1.952 1.953 5.118 0 7.07l-10 10c-.976.976-2.256 1.465-3.535 1.465z" fill="#ff9d33"/><path d="m34.49 413.348c-1.279 0-2.56-.488-3.535-1.465-1.953-1.952-1.953-5.118 0-7.07l10-10c1.951-1.953 5.119-1.953 7.07 0 1.953 1.952 1.953 5.118 0 7.07l-10 10c-.975.976-2.255 1.465-3.535 1.465z" fill="#ff9d33"/></svg>