<svg id="Capa_1" enable-background="new 0 0 512 512" height="512" viewBox="0 0 512 512" width="512" xmlns="http://www.w3.org/2000/svg" xmlns:xlink="http://www.w3.org/1999/xlink"><linearGradient id="SVGID_1_" gradientTransform="matrix(1 0 0 -1 -561.6 -11906.99)" gradientUnits="userSpaceOnUse" x1="998.685" x2="557.6" y1="-11981.905" y2="-12422.99"><stop offset="0" stop-color="#ffd9d9" stop-opacity="0"/><stop offset=".9981" stop-color="#ffb3b3"/></linearGradient><g><g><path d="m411.152 155.152c-29.991 0-54.303-24.312-54.303-54.303 0-55.698-45.152-100.849-100.849-100.849s-100.848 45.151-100.848 100.848c0 29.991-24.312 54.303-54.303 54.303-55.698.001-100.849 45.152-100.849 100.849s45.151 100.848 100.848 100.848c29.991 0 54.303 24.312 54.303 54.303.001 55.698 45.152 100.849 100.849 100.849s100.848-45.151 100.848-100.848c0-29.991 24.312-54.303 54.303-54.303 55.698-.001 100.849-45.152 100.849-100.849s-45.151-100.848-100.848-100.848z" fill="url(#SVGID_1_)"/><g><g fill="#2626bc" opacity=".1"><circle cx="256" cy="321.989" r="97.379"/><path d="m451.687 281.655h-3.583v-9.119c0-15.003-12.163-27.166-27.166-27.166h-2.622c1.646-9.408 2.485-18.991 2.485-28.598 0-39.253-13.905-76.972-39.256-106.756-1.709-2.008-4.743-2.208-6.701-.441l-3.288 2.968c-.193-.36-.417-.708-.706-1.022-29.444-32.115-71.306-50.533-114.85-50.533-43.667 0-85.608 18.506-115.07 50.771-.209.229-.385.477-.543.73l-3.231-2.916c-1.957-1.767-4.992-1.567-6.701.441-25.35 29.784-39.256 67.503-39.256 106.756 0 9.606.84 19.19 2.485 28.598h-2.622c-15.003 0-27.166 12.163-27.166 27.166v9.119h-3.583c-2.761 0-5 2.239-5 5v30.333c0 2.761 2.239 5 5 5h3.583v60.89c0 15.004 12.163 27.166 27.166 27.166h33.836c5.523 0 10-4.477 10-10v-144.672c0-5.523-4.477-10-10-10h-2.657c-1.988-9.349-3.007-18.956-3.007-28.598 0-32.396 11.412-63.532 32.228-88.183 1.629-1.929 1.447-4.796-.427-6.487l-3.361-3.033c.223-.173.443-.351.64-.566 27.573-30.196 66.823-47.515 107.686-47.515 40.749 0 79.924 17.236 107.479 47.289.27.294.572.537.889.752l-3.404 3.072c-1.874 1.691-2.056 4.558-.427 6.487 20.816 24.651 32.228 55.787 32.228 88.183 0 9.642-1.019 19.249-3.007 28.598h-2.657c-5.523 0-10 4.477-10 10v144.675c0 5.523 4.477 10 10 10h8.918v12.69c0 18.717-15.227 33.943-33.943 33.943h-44.41c-.319 0-.629.037-.932.094-1.779-4.17-5.915-7.094-10.735-7.094h-38.175c-6.443 0-11.667 5.223-11.667 11.667s5.223 11.667 11.667 11.667h38.176c4.586 0 8.542-2.652 10.449-6.5.392.099.795.167 1.218.167h44.41c24.23 0 43.943-19.713 43.943-43.943v-12.69h14.918c15.003 0 27.166-12.163 27.166-27.166v-60.89h3.583c2.761 0 5-2.239 5-5v-30.333c0-2.762-2.239-5.001-5-5.001z"/></g><path d="m225.531 114.371h-3v-3c0-2.762-2.239-5-5-5s-5 2.238-5 5v3h-3c-2.761 0-5 2.238-5 5s2.239 5 5 5h3v3c0 2.762 2.239 5 5 5s5-2.238 5-5v-3h3c2.761 0 5-2.238 5-5s-2.239-5-5-5z" fill="#8383ff"/><path d="m444.801 110.371h-3v-3c0-2.762-2.239-5-5-5s-5 2.238-5 5v3h-3c-2.761 0-5 2.238-5 5s2.239 5 5 5h3v3c0 2.762 2.239 5 5 5s5-2.238 5-5v-3h3c2.761 0 5-2.238 5-5s-2.239-5-5-5z" fill="#ff9d33"/><path d="m271.784 147.5c-1.28 0-2.559-.488-3.536-1.465l-4.464-4.464-4.464 4.464c-1.953 1.953-5.118 1.953-7.071 0-1.953-1.952-1.953-5.118 0-7.07l8-8c1.953-1.953 5.118-1.953 7.071 0l8 8c1.953 1.952 1.953 5.118 0 7.07-.977.977-2.256 1.465-3.536 1.465z" fill="#ff6c6c"/><path d="m420.979 65.988c-1.28 0-2.559-.488-3.536-1.465l-4.464-4.464-4.464 4.464c-1.953 1.953-5.118 1.953-7.071 0-1.953-1.952-1.953-5.118 0-7.07l8-8c1.953-1.953 5.118-1.953 7.071 0l8 8c1.953 1.952 1.953 5.118 0 7.07-.977.977-2.256 1.465-3.536 1.465z" fill="#ff6c6c"/><path d="m137.886 443.345c-1.28 0-2.559-.488-3.536-1.465l-4.464-4.464-4.464 4.464c-1.953 1.953-5.118 1.953-7.071 0-1.953-1.952-1.953-5.118 0-7.07l8-8c1.953-1.953 5.118-1.953 7.071 0l8 8c1.953 1.952 1.953 5.118 0 7.07-.977.976-2.256 1.465-3.536 1.465z" fill="#ff9d33"/><g><g><g><circle cx="256" cy="294.988" fill="#ffc599" r="97.379"/><circle cx="256" cy="294.988" fill="#ff7300" r="76.619"/><g fill="#fff"><path d="m256 346.381c-28.338 0-51.392-23.055-51.392-51.393s23.054-51.392 51.392-51.392 51.392 23.054 51.392 51.392-23.054 51.393-51.392 51.393zm0-92.784c-22.824 0-41.392 18.568-41.392 41.392s18.568 41.393 41.392 41.393 41.392-18.568 41.392-41.393c0-22.824-18.568-41.392-41.392-41.392z"/><path d="m256 346.381c-16.433 0-25.3-26.479-25.3-51.393 0-24.913 8.867-51.392 25.3-51.392s25.3 26.479 25.3 51.392c0 24.914-8.867 51.393-25.3 51.393zm0-92.784c-6.238 0-15.3 16.124-15.3 41.392 0 11.718 1.963 22.655 5.526 30.8 2.859 6.534 6.604 10.593 9.774 10.593 6.238 0 15.3-16.125 15.3-41.393 0-11.717-1.963-22.655-5.526-30.799-2.859-6.535-6.604-10.593-9.774-10.593z"/><g><path d="m256 285.356c-16.362 0-31.759-3.646-41.188-9.754-2.318-1.501-2.979-4.597-1.478-6.915 1.501-2.316 4.598-2.977 6.915-1.478 7.875 5.101 21.24 8.146 35.751 8.146 14.5 0 28.301-3.188 36.017-8.321 2.298-1.529 5.402-.905 6.933 1.394 1.529 2.3.905 5.403-1.394 6.933-9.409 6.259-24.944 9.995-41.556 9.995z"/><path d="m217.104 323.856c-1.609 0-3.19-.776-4.155-2.213-1.54-2.292-.93-5.398 1.362-6.938 9.4-6.314 24.985-10.085 41.689-10.085 16.36 0 31.757 3.646 41.187 9.754 2.318 1.501 2.98 4.597 1.479 6.914s-4.596 2.983-6.915 1.479c-7.877-5.101-21.242-8.146-35.751-8.146-14.575 0-28.413 3.213-36.113 8.386-.855.574-1.825.849-2.783.849z"/></g></g></g><g><g><g><path d="m124.898 383.044h-33.836c-15.003 0-27.166-12.163-27.166-27.166v-110.342c0-15.003 12.163-27.166 27.166-27.166h33.836c5.523 0 10 4.477 10 10v144.675c0 5.522-4.477 9.999-10 9.999z" fill="#8383ff"/></g><g><path d="m124.898 218.37h-13.918v164.675h13.918c5.523 0 10-4.477 10-10v-144.675c0-5.523-4.477-10-10-10z" fill="#b3b3ff"/></g><circle cx="110.98" cy="349.322" fill="#ffc599" r="11.959"/><path d="m73.313 294.988h-13c-2.761 0-5-2.239-5-5v-30.333c0-2.761 2.239-5 5-5h13c2.761 0 5 2.239 5 5v30.333c0 2.762-2.238 5-5 5z" fill="#ff6c6c"/></g><g><g><path d="m387.102 383.044h33.836c15.003 0 27.166-12.163 27.166-27.166v-110.342c0-15.003-12.163-27.166-27.166-27.166h-33.836c-5.523 0-10 4.477-10 10v144.675c0 5.522 4.477 9.999 10 9.999z" fill="#8383ff"/></g><g><path d="m387.102 218.37h13.918v164.675h-13.918c-5.523 0-10-4.477-10-10v-144.675c0-5.523 4.477-10 10-10z" fill="#b3b3ff"/></g><circle cx="401.02" cy="349.322" fill="#ffc599" r="11.959"/><path d="m438.687 294.988h13c2.761 0 5-2.239 5-5v-30.333c0-2.761-2.239-5-5-5h-13c-2.761 0-5 2.239-5 5v30.333c0 2.762 2.238 5 5 5z" fill="#ff6c6c"/></g></g><g><g><path d="m389.759 218.37h28.557c1.646-9.408 2.485-18.992 2.485-28.598 0-39.253-13.905-76.972-39.256-106.756-1.709-2.008-4.743-2.208-6.701-.441l-13.88 12.527c-1.874 1.692-2.056 4.558-.427 6.487 20.816 24.651 32.228 55.787 32.228 88.183.001 9.642-1.019 19.249-3.006 28.598z" fill="#ff6c6c"/></g><g><path d="m122.241 218.37c-1.987-9.349-3.007-18.956-3.007-28.598 0-32.396 11.412-63.533 32.228-88.183 1.629-1.929 1.447-4.796-.427-6.487l-13.88-12.527c-1.958-1.767-4.992-1.567-6.701.441-25.35 29.784-39.256 67.503-39.256 106.756 0 9.606.84 19.19 2.485 28.598z" fill="#ff6c6c"/></g></g></g><path d="m267.825 446.012h38.175c6.443 0 11.667-5.223 11.667-11.667 0-6.443-5.223-11.667-11.667-11.667h-38.175c-6.443 0-11.667 5.223-11.667 11.667.001 6.443 5.224 11.667 11.667 11.667z" fill="#8383ff"/><g fill="#2626bc"><path d="m358.379 294.988c0-56.452-45.927-102.379-102.379-102.379s-102.379 45.927-102.379 102.379 45.927 102.38 102.379 102.38 102.379-45.928 102.379-102.38zm-194.758 0c0-50.938 41.441-92.379 92.379-92.379s92.379 41.441 92.379 92.379-41.441 92.38-92.379 92.38-92.379-41.441-92.379-92.38z"/><path d="m453.104 249.768v-4.231c0-16.66-12.731-30.4-28.975-32.008 1.104-7.871 1.672-15.836 1.672-23.757 0-40.287-14.365-79.352-40.448-109.997-1.71-2.009-4.104-3.211-6.737-3.384-2.637-.179-5.163.704-7.121 2.472l-3.227 2.913c-29.283-30.415-69.981-47.788-112.268-47.788-42.301 0-82.983 17.366-112.269 47.785l-3.225-2.911c-1.959-1.768-4.49-2.647-7.121-2.472-2.634.173-5.027 1.375-6.738 3.384-26.083 30.646-40.448 69.71-40.448 109.997 0 7.92.568 15.886 1.672 23.757-16.244 1.608-28.975 15.348-28.975 32.008v4.231c-4.843.692-8.583 4.856-8.583 9.888v30.333c0 5.031 3.739 9.196 8.583 9.888v56.003c0 17.736 14.43 32.166 32.166 32.166h33.836c8.271 0 15-6.729 15-15v-80.744c0-2.762-2.239-5-5-5s-5 2.238-5 5v80.744c0 2.757-2.243 5-5 5h-33.836c-12.223 0-22.166-9.943-22.166-22.166v-55.891h4.417c5.514 0 10-4.486 10-10v-30.333c0-5.514-4.486-10-10-10h-4.417v-4.119c0-12.223 9.944-22.167 22.166-22.167h2.611c.004 0 .007.001.011.001h28.557c.006 0 .012-.001.017-.001h2.64c2.757 0 5 2.243 5 5v33.33c0 2.762 2.239 5 5 5s5-2.238 5-5v-33.33c0-7.774-5.945-14.182-13.526-14.925-1.416-7.806-2.138-15.75-2.138-23.672 0-31.075 11.026-61.247 31.048-84.956 3.391-4.016 2.997-9.912-.897-13.426l-3.225-2.911c27.392-28.323 65.362-44.491 104.84-44.491 39.466 0 77.455 16.168 104.842 44.489l-3.227 2.913c-3.894 3.514-4.288 9.41-.898 13.425 20.022 23.71 31.049 53.882 31.049 84.957 0 7.922-.722 15.866-2.138 23.672-7.582.743-13.526 7.151-13.526 14.925v33.33c0 2.762 2.239 5 5 5s5-2.238 5-5v-33.33c0-2.757 2.243-5 5-5h2.64c.006 0 .012.001.017.001h28.557c.004 0 .007-.001.011-.001h2.611c12.223 0 22.167 9.944 22.167 22.167v4.119h-4.417c-5.514 0-10 4.486-10 10v30.333c0 5.514 4.486 10 10 10h4.417v55.891c0 12.223-9.944 22.166-22.167 22.166h-19.908c-.003 0-.006-.001-.01-.001s-.006.001-.01.001h-13.909c-2.757 0-5-2.243-5-5v-80.744c0-2.762-2.239-5-5-5s-5 2.238-5 5v80.744c0 8.271 6.729 15 15 15h8.918v7.689c0 18.717-15.227 33.943-33.943 33.943h-40.088c-2.025-6.924-8.42-12-15.989-12h-38.175c-9.19 0-16.667 7.477-16.667 16.667s7.477 16.667 16.667 16.667h38.176c7.323 0 13.545-4.754 15.776-11.334h40.301c24.23 0 43.943-19.713 43.943-43.943v-7.689h14.917c17.737 0 32.167-14.43 32.167-32.166v-56.003c4.843-.692 8.583-4.856 8.583-9.888v-30.333c0-5.031-3.74-9.195-8.583-9.887zm-379.784 40.22h-13.007v-30.333h13zm40.914-100.217c0 7.891.661 15.804 1.968 23.598h-18.261c-1.157-7.81-1.742-15.729-1.742-23.598 0-37.806 13.439-74.465 37.851-103.266l13.396 12.091c-21.419 25.477-33.212 57.843-33.212 91.175zm250.32-91.174 13.396-12.091c24.412 28.802 37.851 65.46 37.851 103.266 0 7.869-.586 15.787-1.742 23.598h-18.261c1.307-7.794 1.968-15.706 1.968-23.598 0-33.333-11.792-65.699-33.212-91.175zm-58.554 342.415h-38.175c-3.676 0-6.667-2.991-6.667-6.667s2.991-6.667 6.667-6.667h38.175c3.676 0 6.667 2.991 6.667 6.667s-2.991 6.667-6.667 6.667zm132.687-181.357h13v30.333h-13z"/></g></g></g></g></g></svg>