<svg id="Capa_1" enable-background="new 0 0 512 512" height="512" viewBox="0 0 512 512" width="512" xmlns="http://www.w3.org/2000/svg" xmlns:xlink="http://www.w3.org/1999/xlink"><linearGradient id="SVGID_1_" gradientUnits="userSpaceOnUse" x1="514.722" x2="-406.369" y1="325.589" y2="121.569"><stop offset="0" stop-color="#d2deff" stop-opacity="0"/><stop offset="1" stop-color="#b7c5ff"/></linearGradient><g><g><path d="m428.391 171.888c-8.355-8.355-18.026-14.923-28.716-19.765-28.021-12.69-50.052-35.408-62.434-63.565-22.918-52.113-74.976-88.512-135.546-88.558-79.312-.06-145.163 63.163-148.148 142.418-1.277 33.922 8.857 65.421 26.87 90.969 22.877 32.448 28.821 73.782 17.021 111.69-16.764 53.857-10.919 104.898 20.973 136.791 55.888 55.888 170.586 31.803 256.185-53.795 85.599-85.599 109.683-200.296 53.795-256.185z" fill="url(#SVGID_1_)"/></g><g><g fill="#00c"><path d="m186.194 126.39c1.279 0 2.56-.488 3.536-1.465l6.113-6.114c1.952-1.953 1.952-5.118-.001-7.071-1.953-1.951-5.118-1.952-7.071.001l-6.113 6.114c-1.952 1.953-1.952 5.118.001 7.071.977.975 2.256 1.464 3.535 1.464z" opacity=".1"/><path d="m168.377 116.138c.27.043.536.064.8.064 2.412 0 4.536-1.75 4.931-4.207l1.693-10.534c.438-2.727-1.417-5.292-4.143-5.73-2.736-.436-5.293 1.417-5.73 4.142l-1.693 10.534c-.439 2.727 1.416 5.292 4.142 5.731z" opacity=".1"/><path d="m191.445 139.205c.395 2.458 2.519 4.208 4.931 4.208.263 0 .53-.021.799-.064l10.535-1.692c2.727-.438 4.582-3.003 4.144-5.729s-2.993-4.579-5.729-4.144l-10.535 1.692c-2.728.437-4.583 3.003-4.145 5.729z" opacity=".1"/><path d="m398.511 321.48-6.113 6.114c-1.952 1.953-1.952 5.118.001 7.071.977.976 2.256 1.464 3.535 1.464s2.56-.488 3.536-1.465l6.113-6.114c1.952-1.953 1.952-5.118-.001-7.071-1.953-1.952-5.118-1.953-7.071.001z" opacity=".1"/><path d="m378.916 325.941c2.412 0 4.536-1.75 4.931-4.207l1.693-10.534c.439-2.727-1.417-5.292-4.143-5.73-2.738-.438-5.293 1.417-5.73 4.143l-1.693 10.534c-.439 2.727 1.417 5.292 4.143 5.73.269.043.535.064.799.064z" opacity=".1"/><path d="m401.184 348.944c.395 2.458 2.519 4.208 4.931 4.208.263 0 .53-.021.799-.064l10.535-1.692c2.727-.438 4.582-3.003 4.144-5.729s-2.994-4.58-5.73-4.143l-10.535 1.692c-2.727.436-4.582 3.002-4.144 5.728z" opacity=".1"/><path d="m324.377 304.711c-3.903-3.903-10.239-3.903-14.142 0l-30.243 30.243c-3.91 3.91-3.903 10.239 0 14.142l11.872 11.872-19.092 19.092-135.51-135.51 19.092-19.092 11.872 11.872c3.903 3.903 10.232 3.91 14.142 0l30.243-30.243c3.903-3.903 3.903-10.239 0-14.142l-97.284-97.284c-3.903-3.903-10.239-3.903-14.142 0l-30.243 30.243c-3.91 3.91-3.903 10.239 0 14.142l11.879 11.879-22.351 22.353c-19.944 19.944-21.244 51.473-3.909 72.933-1.177.761-2.04 1.993-2.249 3.49-1.213 8.647-1.827 17.496-1.827 26.299 0 103.574 84.264 187.838 187.838 187.838 8.796 0 17.644-.614 26.297-1.827 1.498-.21 2.729-1.074 3.49-2.251 21.46 17.337 52.99 16.038 72.935-3.907l22.352-22.352 11.879 11.879c3.903 3.903 10.232 3.91 14.142 0l30.243-30.243c3.903-3.903 3.903-10.239 0-14.142zm-84.054 150.127c-98.061 0-177.838-79.777-177.838-177.838 0-7.371.481-14.767 1.379-22.041l198.5 198.5c-7.279.898-14.674 1.379-22.041 1.379z" opacity=".1"/><path d="m436.18 167.985c0-47.962-38.881-86.843-86.843-86.843-19.331 0-37.185 6.319-51.614 17.001-18.102-5.823-37.388-8.981-57.4-8.981-2.762 0-5 2.238-5 5s2.238 5 5 5c16.755 0 32.976 2.332 48.357 6.684-16.153 15.77-26.185 37.781-26.185 62.139 0 47.962 38.881 86.843 86.843 86.843 24.358 0 46.369-10.032 62.139-26.185 4.352 15.381 6.684 31.601 6.684 48.357 0 2.762 2.238 5 5 5s5-2.238 5-5c0-20.012-3.158-39.298-8.981-57.4 10.681-14.43 17-32.283 17-51.615z" opacity=".1"/></g><g><g><g><path d="m380.026 398.871-36.982 36.982c-21.341 21.34-55.946 21.34-77.287 0l-205.286-205.288c-21.341-21.341-21.341-55.946 0-77.287l36.982-36.982 73.532 73.532-33.722 33.722 135.51 135.51 33.722-33.722z" fill="#fff"/><path d="m61.104 309.411h223.739v27.877h-223.739z" fill="#6583fe" transform="matrix(.707 .707 -.707 .707 279.305 -27.604)"/><g><path d="m212.612 186.088-30.243 30.243c-3.91 3.91-10.239 3.903-14.142 0l-97.284-97.284c-3.903-3.903-3.91-10.232 0-14.142l30.243-30.243c3.903-3.903 10.239-3.903 14.142 0l97.284 97.284c3.903 3.903 3.903 10.239 0 14.142z" fill="#fff"/><path d="m125.821 147.796h62.77v26.26h-62.77z" fill="#6583fe" transform="matrix(.707 -.707 .707 .707 -67.747 158.296)"/><path d="m421.661 395.137-30.243 30.243c-3.91 3.91-10.239 3.903-14.142 0l-97.284-97.284c-3.903-3.903-3.91-10.232 0-14.142l30.243-30.243c3.903-3.903 10.239-3.903 14.142 0l97.284 97.284c3.903 3.903 3.903 10.239 0 14.142z" fill="#fff"/><g><path d="m304.012 325.986h62.77v26.26h-62.77z" fill="#6583fe" transform="matrix(.707 -.707 .707 .707 -141.556 336.487)"/></g></g></g><g><g><g><ellipse cx="349.337" cy="146.985" fill="#6583fe" rx="86.843" ry="86.843" transform="matrix(.707 -.707 .707 .707 -1.616 290.07)"/><circle cx="349.337" cy="146.985" fill="#fff" r="64.413"/><g fill="#00c"><path d="m240.323 78.162c14.758 0 29.093 1.826 42.812 5.232-15.87 16.515-25.64 38.933-25.64 63.591 0 17.871 5.143 35.2 14.871 50.113 1.509 2.313 4.607 2.965 6.919 1.456 2.314-1.509 2.965-4.607 1.456-6.919-8.666-13.285-13.246-28.725-13.246-44.65 0-45.128 36.715-81.843 81.843-81.843s81.843 36.715 81.843 81.843-36.715 81.843-81.843 81.843c-16.583 0-32.555-4.936-46.188-14.274-2.277-1.561-5.39-.979-6.95 1.3-1.561 2.277-.978 5.39 1.3 6.95 15.304 10.483 33.23 16.024 51.839 16.024 24.661 0 47.081-9.773 63.597-25.646 3.406 13.72 5.225 28.059 5.225 42.818 0 2.762 2.238 5 5 5s5-2.238 5-5c0-17.882-2.521-35.185-7.21-51.581 12.649-15.74 20.23-35.716 20.23-57.434 0-50.643-41.2-91.843-91.843-91.843-21.719 0-41.698 7.583-57.439 20.235-16.395-4.691-33.695-7.215-51.576-7.215-2.762 0-5 2.238-5 5 0 2.762 2.238 5 5 5z"/><path d="m327.908 280.178c-2.833-2.834-6.6-4.393-10.607-4.393s-7.773 1.56-10.606 4.393l-30.243 30.243c-2.834 2.833-4.394 6.6-4.394 10.606 0 4.007 1.56 7.773 4.394 10.607l8.339 8.339-12.016 12.016-128.44-128.441 12.012-12.012 8.344 8.345c2.924 2.917 6.764 4.375 10.605 4.375 3.842 0 7.686-1.46 10.612-4.38l30.239-30.249c5.842-5.84 5.844-15.354 0-21.211l-97.279-97.28c-2.835-2.836-6.604-4.397-10.61-4.397-4.007 0-7.775 1.562-10.61 4.397l-30.245 30.244c-5.839 5.854-5.837 15.367.005 21.206l8.342 8.342-18.812 18.811c-22.276 22.277-23.2 57.924-2.803 81.329-1.09 8.213-1.648 16.592-1.648 24.933 0 103.574 84.264 187.838 187.838 187.838 8.335 0 16.714-.558 24.932-1.648 11.186 9.749 25.164 14.639 39.151 14.639 15.274 0 30.55-5.814 42.178-17.443l18.811-18.81 8.34 8.34c2.924 2.925 6.765 4.387 10.606 4.387s7.682-1.462 10.605-4.387l30.243-30.243c5.849-5.849 5.849-15.364 0-21.213zm-265.423-24.178c0-5.219.257-10.449.715-15.641l192.763 192.763c-5.195.458-10.424.716-15.641.716-98.059 0-177.837-79.777-177.837-177.838zm277.029 176.315c-19.358 19.357-50.855 19.358-70.216 0l-205.291-205.291c-19.357-19.358-19.357-50.856 0-70.216l22.325-22.324c.008-.007.017-.012.024-.02 1.953-1.952 1.953-5.118 0-7.07l-11.88-11.881c-1.946-1.945-1.944-5.118 0-7.068l30.24-30.24c.947-.946 2.204-1.468 3.54-1.468 1.335 0 2.592.521 3.539 1.468l97.275 97.276c1.949 1.954 1.951 5.127.004 7.073l-30.235 30.246c-1.954 1.948-5.133 1.948-7.083.004l-61.199-61.21c-1.953-1.953-5.118-1.954-7.071-.001s-1.953 5.118-.001 7.071l45.791 45.798-15.548 15.549c-1.953 1.952-1.953 5.118 0 7.07l135.512 135.514c.938.938 2.209 1.465 3.535 1.465s2.598-.526 3.535-1.465l15.552-15.551 66.462 66.461zm78.605-40.713-30.243 30.243c-1.95 1.95-5.123 1.948-7.071 0l-97.282-97.281c-.944-.944-1.464-2.2-1.464-3.536s.52-2.592 1.464-3.536l30.243-30.243c.944-.944 2.2-1.464 3.536-1.464s2.592.52 3.536 1.464l97.281 97.281c1.949 1.95 1.949 5.121 0 7.072z"/><path d="m186.194 105.39c1.279 0 2.56-.488 3.536-1.465l6.113-6.114c1.952-1.953 1.952-5.118-.001-7.071-1.953-1.951-5.118-1.952-7.071.001l-6.113 6.114c-1.952 1.953-1.952 5.118.001 7.071.977.975 2.256 1.464 3.535 1.464z"/><path d="m168.377 95.138c.27.043.536.064.8.064 2.412 0 4.536-1.75 4.931-4.207l1.693-10.534c.438-2.727-1.417-5.292-4.143-5.73-2.736-.436-5.293 1.417-5.73 4.142l-1.693 10.534c-.439 2.727 1.416 5.292 4.142 5.731z"/><path d="m191.445 118.205c.395 2.458 2.519 4.208 4.931 4.208.263 0 .53-.021.799-.064l10.535-1.692c2.727-.438 4.582-3.003 4.144-5.729s-2.993-4.579-5.729-4.144l-10.535 1.692c-2.728.437-4.583 3.003-4.145 5.729z"/><path d="m405.582 300.479c-1.953-1.951-5.118-1.952-7.071.001l-6.113 6.114c-1.952 1.953-1.952 5.118.001 7.071.977.976 2.256 1.464 3.535 1.464s2.56-.488 3.536-1.465l6.113-6.114c1.952-1.953 1.952-5.118-.001-7.071z"/><path d="m375.667 288.612-1.693 10.534c-.439 2.727 1.417 5.292 4.143 5.73.27.043.536.064.8.064 2.412 0 4.536-1.75 4.931-4.207l1.693-10.534c.439-2.727-1.417-5.292-4.143-5.73-2.739-.438-5.294 1.418-5.731 4.143z"/><path d="m406.115 332.152c.263 0 .53-.021.799-.064l10.535-1.692c2.727-.438 4.582-3.003 4.144-5.729s-2.994-4.58-5.73-4.143l-10.535 1.692c-2.727.438-4.582 3.003-4.144 5.729.395 2.457 2.519 4.207 4.931 4.207z"/></g></g></g><g fill="#00c"><g><path d="m332.347 169.624h-21.152c-2.122 0-4.012-1.34-4.716-3.341-.704-2.002-.068-4.23 1.586-5.559 5.549-4.456 15.092-13.315 17.078-18.122.819-1.98.682-4.099-.366-5.667-.584-.873-1.703-1.913-3.721-1.913-2.681 0-4.861 2.182-4.861 4.862 0 2.762-2.238 5-5 5s-5-2.238-5-5c0-8.195 6.667-14.862 14.861-14.862 4.946 0 9.333 2.316 12.033 6.354 2.908 4.349 3.393 9.974 1.296 15.046-1.719 4.157-5.967 9.059-10.128 13.201h8.09c2.762 0 5 2.238 5 5 0 2.763-2.239 5.001-5 5.001z"/><g><path d="m366.12 150.235h-16.383c-2.762 0-5-2.238-5-5v-15.11c0-2.762 2.238-5 5-5s5 2.238 5 5v10.11h11.383c2.762 0 5 2.238 5 5s-2.238 5-5 5z"/><path d="m367.987 169.522c-2.762 0-5-2.238-5-5v-34.396c0-2.762 2.238-5 5-5s5 2.238 5 5v34.396c0 2.761-2.238 5-5 5z"/></g></g><path d="m387.48 135.125c-2.762 0-5-2.238-5-5v-7.788c0-2.762 2.238-5 5-5s5 2.238 5 5v7.788c0 2.762-2.238 5-5 5z"/></g></g></g><g><path d="m189.047 48.429c-1.279 0-2.559-.488-3.535-1.465l-6.465-6.464-6.465 6.464c-1.951 1.953-5.119 1.953-7.07 0-1.953-1.952-1.953-5.118 0-7.07l10-10c1.951-1.953 5.119-1.953 7.07 0l10 10c1.953 1.952 1.953 5.118 0 7.07-.976.976-2.256 1.465-3.535 1.465z" fill="#6583fe"/></g><g><path d="m262.779 229.261c-1.279 0-2.56-.488-3.535-1.465l-6.465-6.464-6.465 6.464c-1.951 1.953-5.119 1.953-7.07 0-1.953-1.952-1.953-5.118 0-7.07l10-10c1.951-1.953 5.119-1.953 7.07 0l10 10c1.953 1.952 1.953 5.118 0 7.07-.975.977-2.256 1.465-3.535 1.465z" fill="#6583fe"/></g><path d="m222.342 483.571c-1.279 0-2.56-.488-3.535-1.465-1.953-1.952-1.953-5.118 0-7.07l10-10c1.951-1.953 5.119-1.953 7.07 0 1.953 1.952 1.953 5.118 0 7.07l-10 10c-.976.977-2.256 1.465-3.535 1.465z" fill="#6583fe"/><g><g><path d="m467.498 205.937c-1.279 0-2.56-.488-3.535-1.465l-6.465-6.464-6.465 6.464c-1.951 1.953-5.119 1.953-7.07 0-1.953-1.952-1.953-5.118 0-7.07l10-10c1.951-1.953 5.119-1.953 7.07 0l10 10c1.953 1.952 1.953 5.118 0 7.07-.975.976-2.256 1.465-3.535 1.465z" fill="#6583fe"/></g><path d="m45.147 370.362c-1.279 0-2.56-.488-3.535-1.465-1.953-1.952-1.953-5.118 0-7.07l10-10c1.951-1.953 5.119-1.953 7.07 0 1.953 1.952 1.953 5.118 0 7.07l-10 10c-.975.977-2.255 1.465-3.535 1.465z" fill="#6583fe"/></g></g></g></g></svg>